<?xml version="1.0" standalone="no"?><!DOCTYPE svg PUBLIC "-//W3C//DTD SVG 1.1//EN"
        "http://www.w3.org/Graphics/SVG/1.1/DTD/svg11.dtd">
<svg t="1648537964205" class="icon" viewBox="0 0 1024 1024" version="1.1" xmlns="http://www.w3.org/2000/svg" p-id="1661"
     xmlns:xlink="http://www.w3.org/1999/xlink" width="200" height="200">
    <defs>
        <style type="text/css"></style>
    </defs>
    <path d="M507.820408 507.820408m-468.114286 0a468.114286 468.114286 0 1 0 936.228572 0 468.114286 468.114286 0 1 0-936.228572 0Z"
          fill="#DEBF80" p-id="1662"></path>
    <path d="M507.820408 60.604082c119.456914 0 231.758367 46.518857 316.227919 130.984228 84.469551 84.469551 130.988408 196.775184 130.988408 316.232098 0 119.452735-46.518857 231.758367-130.988408 316.227919s-196.775184 130.988408-316.227919 130.988408c-246.595918 0-447.216327-200.620408-447.216326-447.216327s200.620408-447.216327 447.216326-447.216326z m-489.012245 447.216326c0 269.642188 219.370057 489.012245 489.012245 489.012245 130.620604 0 253.421192-50.865633 345.777633-143.234612 92.3648-92.36898 143.234612-215.161208 143.234612-345.777633s-50.865633-253.421192-143.234612-345.781812C761.2416 69.673796 638.441012 18.808163 507.820408 18.808163c-269.642188 0-489.012245 219.370057-489.012245 489.012245z"
          fill="#6E6E96" p-id="1663"></path>
    <path d="M530.808163 280.032653m-85.681632 0a85.681633 85.681633 0 1 0 171.363265 0 85.681633 85.681633 0 1 0-171.363265 0Z"
          fill="#DEBF80" p-id="1664"></path>
    <path d="M91.95102 464.273241a399.489567 389.040588 0 1 0 798.979135 0 399.489567 389.040588 0 1 0-798.979135 0Z"
          fill="#EDD598" p-id="1665"></path>
    <path d="M365.26289 662.916702m-104.941192 0a104.941192 104.941192 0 1 0 209.882384 0 104.941192 104.941192 0 1 0-209.882384 0Z"
          fill="#DEBF80" p-id="1666"></path>
    <path d="M785.629518 545.436735m-41.143902 0a41.143902 41.143902 0 1 0 82.287804 0 41.143902 41.143902 0 1 0-82.287804 0Z"
          fill="#DEBF80" p-id="1667"></path>
    <path d="M660.37551 731.428571m-58.514286 0a58.514286 58.514286 0 1 0 117.028572 0 58.514286 58.514286 0 1 0-117.028572 0Z"
          fill="#DEBF80" p-id="1668"></path>
    <path d="M280.032653 367.804082m-60.604082 0a60.604082 60.604082 0 1 0 121.208164 0 60.604082 60.604082 0 1 0-121.208164 0Z"
          fill="#DEBF80" p-id="1669"></path>
    <path d="M497.55951 846.760229m-41.143902 0a41.143902 41.143902 0 1 0 82.287804 0 41.143902 41.143902 0 1 0-82.287804 0Z"
          fill="#DEBF80" p-id="1670"></path>
    <path d="M711.625665 456.436506m-20.287738 0a20.287739 20.287739 0 1 0 40.575477 0 20.287739 20.287739 0 1 0-40.575477 0Z"
          fill="#DEBF80" p-id="1671"></path>
    <path d="M192.875624 521.22018m-20.287738 0a20.287739 20.287739 0 1 0 40.575477 0 20.287739 20.287739 0 1 0-40.575477 0Z"
          fill="#DEBF80" p-id="1672"></path>
    <path d="M355.875527 259.134694m-20.287739 0a20.287739 20.287739 0 1 0 40.575477 0 20.287739 20.287739 0 1 0-40.575477 0Z"
          fill="#DEBF80" p-id="1673"></path>
    <path d="M484.698906 453.485714m-41.143902 0a41.143902 41.143902 0 1 0 82.287804 0 41.143902 41.143902 0 1 0-82.287804 0Z"
          fill="#DEBF80" p-id="1674"></path>
    <path d="M777.291233 224.544392m-41.143902 0a41.143902 41.143902 0 1 0 82.287804 0 41.143902 41.143902 0 1 0-82.287804 0Z"
          fill="#DEBF80" p-id="1675"></path>
    <path d="M120.388963 230.80542h783.217894v41.795919H120.388963zM59.078531 343.529012h907.226383v83.591837H59.078531zM159.221551 827.935347H860.786939l34.356245-83.591837H129.964408zM60.892473 624.059037H963.813878v41.795918H60.892473z"
          fill="#6E6E96" p-id="1676"></path>
</svg>